<svg xmlns="http://www.w3.org/2000/svg" width="51.158" height="57.256" viewBox="0 0 51.158 57.256">
  <path id="Icon_awesome-plus" data-name="Icon awesome-plus" d="M47.5,24.743H31.06V6.34a3.891,3.891,0,0,0-3.654-4.09H23.752A3.891,3.891,0,0,0,20.1,6.34v18.4H3.654A3.891,3.891,0,0,0,0,28.833v4.09a3.891,3.891,0,0,0,3.654,4.09H20.1v18.4a3.891,3.891,0,0,0,3.654,4.09h3.654a3.891,3.891,0,0,0,3.654-4.09v-18.4H47.5a3.891,3.891,0,0,0,3.654-4.09v-4.09A3.891,3.891,0,0,0,47.5,24.743Z" transform="translate(0 -2.25)" fill="#a6a5a5"/>
</svg>
